<svg xmlns="http://www.w3.org/2000/svg" viewBox="0 0 64 64" role="img" aria-label="Chicle Engine">
  <rect width="64" height="64" rx="14" fill="#12324f"/>
  <path d="M18 20h28a6 6 0 0 1 6 6v12a6 6 0 0 1-6 6H31l-9 8v-8h-4a6 6 0 0 1-6-6V26a6 6 0 0 1 6-6Z" fill="#ffffff"/>
  <path d="M23 38c-3.4 0-6-2.6-6-6s2.6-6 6-6c2.2 0 4 1 5 2.7l-3.1 1.7c-.4-.8-1.1-1.2-1.9-1.2-1.4 0-2.4 1.1-2.4 2.8s1 2.8 2.4 2.8c.9 0 1.6-.4 2-1.3l3.1 1.7c-1 1.8-2.8 2.8-5.1 2.8Zm8.1-.2V26.2h3.6v4.2c.7-.8 1.7-1.2 2.9-1.2 2.2 0 3.7 1.5 3.7 4.1v4.5h-3.6v-4c0-1-.5-1.5-1.3-1.5-1 0-1.7.7-1.7 2v3.5h-3.6Z" fill="#1554a2"/>
</svg>
